<svg width="32" height="34" viewBox="0 0 32 34" fill="none" xmlns="http://www.w3.org/2000/svg">
<path d="M18.63 33.46C15.2567 33.46 12.3587 32.7853 9.936 31.436C7.544 30.056 5.704 28.124 4.416 25.64C3.128 23.1253 2.484 20.166 2.484 16.762C2.484 13.358 3.128 10.414 4.416 7.93C5.704 5.446 7.544 3.52933 9.936 2.18C12.3587 0.799999 15.2567 0.109998 18.63 0.109998C20.8073 0.109998 22.862 0.447332 24.794 1.122C26.7567 1.79667 28.3667 2.76267 29.624 4.02L27.692 8.712C26.312 7.54667 24.9013 6.70333 23.46 6.182C22.0187 5.63 20.47 5.354 18.814 5.354C15.5327 5.354 13.0333 6.35067 11.316 8.344C9.59867 10.3067 8.74 13.1127 8.74 16.762C8.74 20.4113 9.59867 23.2327 11.316 25.226C13.0333 27.2193 15.5327 28.216 18.814 28.216C20.47 28.216 22.0187 27.9553 23.46 27.434C24.9013 26.882 26.312 26.0233 27.692 24.858L29.624 29.55C28.3667 30.7767 26.7567 31.7427 24.794 32.448C22.862 33.1227 20.8073 33.46 18.63 33.46Z" fill="white"/>
<path d="M19.5 24C23.6421 24 27 20.6421 27 16.5C27 12.3579 23.6421 9 19.5 9C15.3579 9 12 12.3579 12 16.5C12 20.6421 15.3579 24 19.5 24Z" fill="#F9D67B"/>
</svg>
