<svg width="195" height="33" viewBox="0 0 195 33" fill="none" xmlns="http://www.w3.org/2000/svg">
<path d="M17.82 32.4391C14.5933 32.4391 11.8213 31.7938 9.50398 30.5031C7.21598 29.1831 5.45598 27.3351 4.22398 24.9591C2.99198 22.5538 2.37598 19.7231 2.37598 16.4671C2.37598 13.2111 2.99198 10.3951 4.22398 8.01906C5.45598 5.64306 7.21598 3.80973 9.50398 2.51906C11.8213 1.19906 14.5933 0.539062 17.82 0.539062C19.9027 0.539062 21.868 0.861728 23.716 1.50706C25.5933 2.15239 27.1333 3.07639 28.336 4.27906L26.488 8.76706C25.168 7.65239 23.8187 6.84573 22.44 6.34706C21.0613 5.81906 19.58 5.55506 17.996 5.55506C14.8573 5.55506 12.4667 6.50839 10.824 8.41506C9.18131 10.2924 8.35998 12.9764 8.35998 16.4671C8.35998 19.9578 9.18131 22.6564 10.824 24.5631C12.4667 26.4698 14.8573 27.4231 17.996 27.4231C19.58 27.4231 21.0613 27.1738 22.44 26.6751C23.8187 26.1471 25.168 25.3258 26.488 24.2111L28.336 28.6991C27.1333 29.8724 25.5933 30.7964 23.716 31.4711C21.868 32.1164 19.9027 32.4391 17.82 32.4391ZM46.167 32.4391C43.9083 32.4391 41.855 32.0724 40.007 31.3391C38.1883 30.5764 36.619 29.4911 35.299 28.0831C34.0083 26.6751 33.011 24.9884 32.307 23.0231C31.603 21.0578 31.251 18.8724 31.251 16.4671C31.251 14.0324 31.603 11.8471 32.307 9.91106C33.011 7.94573 34.0083 6.27373 35.299 4.89506C36.619 3.48706 38.1883 2.41639 40.007 1.68306C41.855 0.920395 43.9083 0.539062 46.167 0.539062C48.4257 0.539062 50.4643 0.920395 52.283 1.68306C54.131 2.41639 55.7003 3.47239 56.991 4.85106C58.311 6.22972 59.323 7.90172 60.027 9.86706C60.731 11.8031 61.083 13.9884 61.083 16.4231C61.083 18.8578 60.731 21.0578 60.027 23.0231C59.323 24.9884 58.311 26.6751 56.991 28.0831C55.7003 29.4911 54.131 30.5764 52.283 31.3391C50.4643 32.0724 48.4257 32.4391 46.167 32.4391ZM46.167 27.5991C48.0737 27.5991 49.687 27.1591 51.007 26.2791C52.3563 25.3991 53.383 24.1231 54.087 22.4511C54.8203 20.7791 55.187 18.7844 55.187 16.4671C55.187 14.1204 54.835 12.1258 54.131 10.4831C53.427 8.81106 52.4003 7.54973 51.051 6.69906C49.7017 5.81906 48.0737 5.37906 46.167 5.37906C44.2897 5.37906 42.6763 5.81906 41.327 6.69906C39.9777 7.54973 38.9363 8.81106 38.203 10.4831C37.499 12.1258 37.147 14.1204 37.147 16.4671C37.147 18.7844 37.499 20.7791 38.203 22.4511C38.9363 24.1231 39.9777 25.3991 41.327 26.2791C42.6763 27.1591 44.2897 27.5991 46.167 27.5991ZM66.8099 31.9991V0.979061H71.0339L88.8539 24.1231H87.7099V0.979061H92.9459V31.9991H88.7659L70.9459 8.81106H72.0459V31.9991H66.8099ZM110.416 32.4391C108.803 32.4391 107.248 32.2924 105.752 31.9991C104.285 31.7351 102.921 31.3391 101.66 30.8111C100.428 30.2831 99.3279 29.6524 98.3599 28.9191L100.076 24.4751C101.044 25.1498 102.056 25.7364 103.112 26.2351C104.197 26.7044 105.341 27.0711 106.544 27.3351C107.776 27.5698 109.067 27.6871 110.416 27.6871C112.733 27.6871 114.42 27.3058 115.476 26.5431C116.532 25.7511 117.06 24.7391 117.06 23.5071C117.06 22.8324 116.899 22.2604 116.576 21.7911C116.253 21.2924 115.725 20.8671 114.992 20.5151C114.259 20.1631 113.291 19.8698 112.088 19.6351L107.248 18.6231C104.461 18.0364 102.379 17.0538 101 15.6751C99.6506 14.2671 98.9759 12.4191 98.9759 10.1311C98.9759 8.19506 99.4893 6.50839 100.516 5.07106C101.543 3.63373 102.965 2.51906 104.784 1.72706C106.603 0.935063 108.7 0.539062 111.076 0.539062C112.484 0.539062 113.833 0.685728 115.124 0.979061C116.444 1.24306 117.647 1.65372 118.732 2.21106C119.847 2.73906 120.815 3.38439 121.636 4.14706L119.92 8.37106C118.688 7.34439 117.339 6.58173 115.872 6.08306C114.405 5.55506 112.792 5.29106 111.032 5.29106C109.683 5.29106 108.524 5.48172 107.556 5.86306C106.588 6.24439 105.84 6.78706 105.312 7.49106C104.813 8.16572 104.564 8.97239 104.564 9.91106C104.564 10.9671 104.916 11.8178 105.62 12.4631C106.324 13.0791 107.527 13.5631 109.228 13.9151L114.024 14.9271C116.928 15.5431 119.084 16.5111 120.492 17.8311C121.929 19.1511 122.648 20.9111 122.648 23.1111C122.648 24.9591 122.149 26.5871 121.152 27.9951C120.155 29.4031 118.732 30.5031 116.884 31.2951C115.065 32.0578 112.909 32.4391 110.416 32.4391ZM123.923 31.9991L137.959 0.979061H142.579L156.615 31.9991H150.895L147.155 23.2871L149.531 24.8271H130.963L133.339 23.2871L129.643 31.9991H123.923ZM140.203 7.09506L134.043 21.7471L132.899 20.3391H147.595L146.495 21.7471L140.291 7.09506H140.203ZM160.097 31.9991V0.979061H164.805L176.509 22.5831H175.101L186.761 0.979061H191.381V31.9991H186.277V9.33906H187.245L177.389 27.2911H174.089L164.145 9.29506H165.201V31.9991H160.097Z" fill="white"/>
<path d="M18.5 24C22.6421 24 26 20.6421 26 16.5C26 12.3579 22.6421 9 18.5 9C14.3579 9 11 12.3579 11 16.5C11 20.6421 14.3579 24 18.5 24Z" fill="#F9D67B"/>
</svg>
