<svg width="32" height="34" viewBox="0 0 32 34" fill="none" xmlns="http://www.w3.org/2000/svg">
<path d="M18.6304 33.4594C15.2571 33.4594 12.3591 32.7847 9.93637 31.4354C7.54437 30.0554 5.70437 28.1234 4.41637 25.6394C3.12837 23.1247 2.48438 20.1654 2.48438 16.7614C2.48438 13.3574 3.12837 10.4134 4.41637 7.92938C5.70437 5.44538 7.54437 3.52871 9.93637 2.17938C12.3591 0.799376 15.2571 0.109375 18.6304 0.109375C20.8077 0.109375 22.8624 0.446709 24.7944 1.12138C26.7571 1.79605 28.3671 2.76205 29.6244 4.01938L27.6924 8.71138C26.3124 7.54605 24.9017 6.70271 23.4604 6.18138C22.0191 5.62938 20.4704 5.35338 18.8144 5.35338C15.5331 5.35338 13.0337 6.35005 11.3164 8.34338C9.59904 10.3061 8.74037 13.1121 8.74037 16.7614C8.74037 20.4107 9.59904 23.2321 11.3164 25.2254C13.0337 27.2187 15.5331 28.2154 18.8144 28.2154C20.4704 28.2154 22.0191 27.9547 23.4604 27.4334C24.9017 26.8814 26.3124 26.0227 27.6924 24.8574L29.6244 29.5494C28.3671 30.7761 26.7571 31.7421 24.7944 32.4474C22.8624 33.1221 20.8077 33.4594 18.6304 33.4594Z" fill="#0C6E6D"/>
<path d="M19.5 24C23.6421 24 27 20.6421 27 16.5C27 12.3579 23.6421 9 19.5 9C15.3579 9 12 12.3579 12 16.5C12 20.6421 15.3579 24 19.5 24Z" fill="#F9D67B"/>
</svg>
