<svg width="32" height="32" viewBox="0 0 32 32" fill="none" xmlns="http://www.w3.org/2000/svg">
<g clip-path="url(#clip0_4695_1167)">
<path d="M16 0C7.15681 0 0 7.15606 0 16C0 24.8432 7.15606 32 16 32C24.8432 32 32 24.8439 32 16C32 7.15681 24.8439 0 16 0ZM27.8314 16.9375H30.0931C29.883 20.1278 28.6094 23.0319 26.6238 25.2979L25.6539 24.3281C25.2879 23.9619 24.6943 23.9621 24.3281 24.3281C23.962 24.6943 23.962 25.2878 24.3281 25.6539L25.298 26.6238C23.032 28.6094 20.1278 29.883 16.9375 30.0931V28.4564C16.9375 27.9386 16.5177 27.5189 16 27.5189C15.4823 27.5189 15.0625 27.9386 15.0625 28.4564V30.0931C11.8722 29.883 8.96806 28.6094 6.70206 26.6238L7.67188 25.6539C8.038 25.2879 8.038 24.6943 7.67188 24.3281C7.30581 23.9621 6.71219 23.9621 6.34606 24.3281L5.37625 25.2979C3.39056 23.032 2.117 20.1278 1.90688 16.9375H3.54363C4.06138 16.9375 4.48112 16.5177 4.48112 16C4.48112 15.4823 4.06138 15.0625 3.54363 15.0625H1.90688C2.117 11.8722 3.39056 8.96806 5.37619 6.70206L6.346 7.67188C6.71213 8.038 7.30569 8.038 7.67181 7.67188C8.03788 7.30581 8.03788 6.71219 7.67181 6.34606L6.702 5.37625C8.968 3.39056 11.8722 2.117 15.0625 1.90688V3.54363C15.0625 4.06138 15.4823 4.48112 16 4.48112C16.5177 4.48112 16.9375 4.06138 16.9375 3.54363V1.90688C20.1278 2.117 23.0319 3.39056 25.2979 5.37619L24.3281 6.34606C23.962 6.71219 23.962 7.30575 24.3281 7.67188C24.6941 8.038 25.2878 8.03806 25.6539 7.67188L26.6238 6.702C28.6094 8.968 29.883 11.8722 30.0931 15.0625H27.8314C27.3136 15.0625 26.8939 15.4823 26.8939 16C26.8939 16.5177 27.3136 16.9375 27.8314 16.9375Z" fill="white"/>
<path d="M21.9157 15.0618H16.9375V7.29297C16.9375 6.77522 16.5178 6.35547 16 6.35547C15.4823 6.35547 15.0625 6.77522 15.0625 7.29297V15.9993C15.0625 16.5171 15.4823 16.9368 16 16.9368H21.9157C22.4334 16.9368 22.8532 16.5171 22.8532 15.9993C22.8532 15.4816 22.4335 15.0618 21.9157 15.0618Z" fill="white"/>
</g>
<defs>
<clipPath id="clip0_4695_1167">
<rect width="32" height="32" fill="white"/>
</clipPath>
</defs>
</svg>
