<svg width="16" height="16" viewBox="0 0 16 16" fill="none" xmlns="http://www.w3.org/2000/svg">
<g clip-path="url(#clip0_4798_2867)">
<path d="M8 0C3.58887 0 0 3.58887 0 8C0 12.4111 3.58887 16 8 16C12.4111 16 16 12.4111 16 8C16 3.58887 12.4111 0 8 0ZM8 15C4.14014 15 1 11.8599 1 8C1 4.14014 4.14014 1 8 1C11.8599 1 15 4.14014 15 8C15 11.8599 11.8599 15 8 15Z" fill="#0C6E6D"/>
<path d="M8.5 4H7.5V8.20703L10.1465 10.8535L10.8535 10.1465L8.49999 7.79298L8.5 4Z" fill="#0C6E6D"/>
</g>
<defs>
<clipPath id="clip0_4798_2867">
<rect width="16" height="16" fill="white"/>
</clipPath>
</defs>
</svg>
