<svg width="16" height="16" viewBox="0 0 16 16" fill="none" xmlns="http://www.w3.org/2000/svg">
<path d="M13.43 1.07812H2.55441C1.41733 1.07812 0.492188 2.00308 0.492188 3.14035V9.79596C0.492188 10.9307 1.4133 11.8542 2.54709 11.8582V14.8784L6.88751 11.8582H13.43C14.567 11.8582 15.4922 10.933 15.4922 9.79596V3.14035C15.4922 2.00308 14.567 1.07812 13.43 1.07812ZM14.6133 9.79596C14.6133 10.4484 14.0825 10.9793 13.43 10.9793H6.61176L3.42599 13.1961V10.9793H2.55441C1.90192 10.9793 1.37109 10.4484 1.37109 9.79596V3.14035C1.37109 2.48776 1.90192 1.95703 2.55441 1.95703H13.43C14.0825 1.95703 14.6133 2.48776 14.6133 3.14035V9.79596Z" fill="#0C6E6D"/>
<path d="M4.50684 4.18359H11.4775V5.0625H4.50684V4.18359Z" fill="#0C6E6D"/>
<path d="M4.50684 6.05859H11.4775V6.9375H4.50684V6.05859Z" fill="#0C6E6D"/>
<path d="M4.50684 7.93359H11.4775V8.8125H4.50684V7.93359Z" fill="#0C6E6D"/>
</svg>
