<svg width="44" height="44" viewBox="0 0 44 44" fill="none" xmlns="http://www.w3.org/2000/svg">
<g clip-path="url(#clip0_4798_151)">
<path d="M43.1345 20.4626L36.0685 16.9298L43.1345 13.3966C44.3984 12.7648 44.3998 10.9547 43.1345 10.3219L22.8532 0.181275C22.3691 -0.0604251 21.7998 -0.0604251 21.3157 0.181275L1.03436 10.3219C-0.229532 10.9541 -0.230874 12.7641 1.03436 13.3966L8.1004 16.9298L1.03436 20.4626C-0.229532 21.0947 -0.230874 22.9045 1.03436 23.5372L8.1004 27.0704L1.03436 30.6033C-0.229532 31.2354 -0.230874 33.0451 1.03436 33.6779L21.3157 43.8186C21.7988 44.0599 22.3681 44.061 22.8532 43.8186L43.1345 33.6779C44.3984 33.0458 44.3998 31.2361 43.1345 30.6033L36.0685 27.0704L43.1345 23.5372C44.3984 22.9055 44.3998 21.0954 43.1345 20.4626ZM22.0844 3.64028L38.5224 11.8594L22.0844 20.0782L5.64647 11.8594L22.0844 3.64028ZM38.5224 32.1408L22.0844 40.3596L5.64647 32.1408L11.9438 28.9919L21.3157 33.6779C21.7991 33.9193 22.3681 33.9203 22.8532 33.6779L32.2251 28.9919L38.5224 32.1408ZM22.0844 30.2189L5.64647 22.0001L11.9438 18.8513L21.3157 23.5372C21.7991 23.7786 22.3681 23.7796 22.8532 23.5372L32.2251 18.8513L38.5224 22.0001L22.0844 30.2189Z" fill="#0C6E6D"/>
</g>
<defs>
<clipPath id="clip0_4798_151">
<rect width="44" height="44" fill="white"/>
</clipPath>
</defs>
</svg>
