<svg width="44" height="44" viewBox="0 0 44 44" fill="none" xmlns="http://www.w3.org/2000/svg">
<path d="M39.4023 17.4023C39.4023 7.80665 31.5957 0 22 0C12.4043 0 4.59766 7.80665 4.59766 17.4023C4.59766 21.8925 6.30721 25.9908 9.10938 29.0809V38.8438H10.3984C11.7389 38.8438 13.0466 38.5871 14.2656 38.0939V44H15.5547C17.9314 44 20.1786 43.2058 22 41.7417C23.8214 43.2058 26.0686 44 28.4453 44H29.7344V38.0939C30.9534 38.5871 32.2611 38.8438 33.6016 38.8438H34.8906V29.0809C37.6928 25.9908 39.4023 21.8925 39.4023 17.4023ZM22 2.57812C30.1741 2.57812 36.8242 9.22823 36.8242 17.4023C36.8242 25.5765 30.1741 32.2266 22 32.2266C13.8259 32.2266 7.17578 25.5765 7.17578 17.4023C7.17578 9.22823 13.8259 2.57812 22 2.57812ZM11.6875 36.1591V31.4108C12.4964 32.0079 13.3586 32.5363 14.2656 32.9882V35.2322C13.4664 35.6945 12.5957 36.0073 11.6875 36.1591ZM22.9206 39.1024L22 38.1632L21.0794 39.1024C19.9186 40.2866 18.4469 41.0497 16.8438 41.3161V34.0249C18.4737 34.5316 20.2055 34.8047 22 34.8047C23.7945 34.8047 25.5263 34.5315 27.1562 34.0249V41.3161C25.5531 41.0496 24.0814 40.2866 22.9206 39.1024ZM29.7344 35.2322V32.9882C30.6414 32.5363 31.5036 32.0079 32.3125 31.4108V36.1591C31.4043 36.0073 30.5336 35.6945 29.7344 35.2322Z" fill="#0C6E6D"/>
<path d="M14.8022 27.3096L22.0003 23.9033L29.1984 27.3096L28.1831 19.4111L33.6471 13.618L25.8215 12.143L22.0003 5.15625L18.1791 12.143L10.3535 13.6181L15.8175 19.4112L14.8022 27.3096ZM15.4634 15.2784L19.8556 14.4505L22.0003 10.5291L24.1449 14.4506L28.5371 15.2785L25.4704 18.5298L26.0403 22.9628L22.0003 21.0511L17.9603 22.9629L18.5301 18.5299L15.4634 15.2784Z" fill="#0C6E6D"/>
</svg>
