<svg width="44" height="44" viewBox="0 0 44 44" fill="none" xmlns="http://www.w3.org/2000/svg">
<path d="M38.8256 31.3832C38.8256 30.044 38.0183 28.8903 36.8651 28.3816C37.1548 27.8928 37.3218 27.3232 37.3218 26.7149C37.3218 24.9066 35.8506 23.4354 34.0423 23.4354C31.4198 23.4354 26.0477 23.4354 23.4093 23.4354C23.5465 21.6932 23.7961 19.9591 24.1567 18.2519C24.4074 17.0648 24.113 15.8434 23.3488 14.9009C22.5846 13.9585 21.4505 13.418 20.2372 13.418C19.2599 13.418 18.4034 14.0781 18.1543 15.0231L16.6148 20.8646C16.2763 22.1491 15.6318 23.3537 14.7512 24.3482C14.3718 24.7768 13.9521 25.1619 13.4987 25.5038C13.1874 25.0249 12.6487 24.7068 12.0363 24.7068H6.91793C5.95629 24.7068 5.17383 25.4892 5.17383 26.4509V41.7561C5.17383 42.7178 5.9562 43.5002 6.91793 43.5002H12.0362C12.8541 43.5002 13.5403 42.9336 13.7279 42.1728C14.7337 42.2543 15.7258 42.527 16.6292 42.9746C17.9822 43.6449 19.4954 43.9993 21.0051 43.9993H32.95C34.7583 43.9993 36.2295 42.5281 36.2295 40.7198C36.2295 40.0448 36.0244 39.4169 35.6733 38.8948C36.6573 38.3282 37.3217 37.2663 37.3217 36.0516C37.3217 35.4434 37.1547 34.8737 36.865 34.3849C38.0182 33.8761 38.8256 32.7225 38.8256 31.3832ZM35.431 26.715C35.431 27.4808 34.808 28.1037 34.0422 28.1037H29.1313C29.1276 28.1037 29.1239 28.104 29.1202 28.104C29.1183 28.104 29.1165 28.1037 29.1146 28.1037C28.3489 28.1037 27.7258 27.4808 27.7258 26.715C27.7258 25.9492 28.3489 25.3262 29.1146 25.3262H34.0422C34.8081 25.3262 35.431 25.9492 35.431 26.715ZM11.8897 41.6095H7.06445V26.5974H11.8897V41.6095ZM17.4686 41.2805C16.3213 40.712 15.0585 40.3717 13.7803 40.2813V27.5955C14.6712 27.0538 15.4727 26.3853 16.1667 25.6015C17.2423 24.3869 18.0294 22.9154 18.4429 21.3465L19.9825 15.505C20.0129 15.3893 20.1177 15.3086 20.2372 15.3086C20.878 15.3086 21.4768 15.594 21.8803 16.0917C22.2839 16.5893 22.4394 17.2343 22.3069 17.8611C21.7012 20.7295 21.3939 23.6704 21.3939 26.602V27.7825C21.3939 29.9132 20.118 31.8069 18.1433 32.6072C17.6595 32.8032 17.4262 33.3544 17.6223 33.8384C17.7712 34.2058 18.1251 34.4288 18.4988 34.4288C18.6169 34.4288 18.7372 34.4065 18.8534 34.3593C21.5453 33.2685 23.2846 30.6869 23.2846 27.7825V26.602C23.2846 26.1768 23.2922 25.7515 23.3057 25.3261H26.1448C25.9466 25.7481 25.8353 26.2186 25.8353 26.7149C25.8353 27.6317 26.2138 28.4613 26.8223 29.057C26.2235 29.6515 25.852 30.4747 25.852 31.3831C25.852 32.2958 26.2271 33.1221 26.8307 33.7173C26.2271 34.3124 25.852 35.1388 25.852 36.0513C25.852 36.9598 26.2235 37.783 26.8223 38.3775C26.2139 38.9731 25.8353 39.8028 25.8353 40.7195C25.8353 41.2158 25.9466 41.6863 26.1448 42.1084H21.0051C19.785 42.1085 18.562 41.8222 17.4686 41.2805ZM34.0423 34.6627C34.8081 34.6627 35.4311 35.2856 35.4311 36.0514C35.4311 36.8172 34.8081 37.4403 34.0423 37.4403H29.1314C28.3656 37.4403 27.7426 36.8172 27.7426 36.0514C27.7426 35.2856 28.3656 34.6627 29.1314 34.6627H34.0423ZM32.95 42.1085H29.1147C28.3489 42.1085 27.7259 41.4855 27.7259 40.7197C27.7259 39.9539 28.3489 39.331 29.1147 39.331C29.1166 39.331 29.1184 39.3307 29.1203 39.3307C29.124 39.3307 29.1277 39.331 29.1314 39.331H32.95C33.7158 39.331 34.3389 39.9539 34.3389 40.7197C34.3389 41.4855 33.7158 42.1085 32.95 42.1085ZM35.5461 32.772H29.1314C28.3656 32.772 27.7426 32.149 27.7426 31.3832C27.7426 30.6174 28.3656 29.9944 29.1314 29.9944H35.5461C36.3119 29.9944 36.935 30.6174 36.935 31.3832C36.935 32.149 36.3119 32.772 35.5461 32.772Z" fill="#0C6E6D"/>
<path d="M27.3681 3.76484L24.4063 3.04176L22.8033 0.448336C22.6311 0.169641 22.3268 0 21.9992 0C21.6716 0 21.3673 0.169641 21.1951 0.448336L19.5922 3.04176L16.6303 3.76484C16.312 3.84252 16.0567 4.07954 15.9555 4.39106C15.8542 4.70267 15.9215 5.04453 16.1334 5.29444L18.1045 7.62025L17.8769 10.6605C17.8524 10.9873 17.9989 11.3033 18.2639 11.4959C18.5289 11.6884 18.8749 11.73 19.1779 11.6059L21.9992 10.4499L24.8204 11.6059C24.9359 11.6532 25.0576 11.6764 25.1787 11.6764C25.3753 11.6764 25.5704 11.6151 25.7345 11.4959C25.9995 11.3033 26.1459 10.9872 26.1214 10.6605L25.8939 7.62016L27.865 5.29435C28.0769 5.04445 28.1441 4.70259 28.0429 4.39098C27.9417 4.07954 27.6864 3.84252 27.3681 3.76484ZM24.2012 6.69333C24.0407 6.88273 23.9611 7.12757 23.9796 7.37516L24.1219 9.27652L22.3576 8.55362C22.2428 8.50652 22.121 8.48306 21.9992 8.48306C21.8774 8.48306 21.7556 8.50652 21.6407 8.55362L19.8764 9.27652L20.0188 7.37516C20.0373 7.12757 19.9577 6.88282 19.7972 6.69333L18.5644 5.23875L20.4168 4.78655C20.658 4.72759 20.8662 4.57634 20.9967 4.3652L21.9992 2.7433L23.0016 4.3652C23.1322 4.57634 23.3404 4.72768 23.5816 4.78655L25.4339 5.23875L24.2012 6.69333Z" fill="#0C6E6D"/>
<path d="M15.022 8.48711L12.8628 7.96005L11.6943 6.06943C11.522 5.79073 11.2177 5.62109 10.8901 5.62109C10.5625 5.62109 10.2582 5.79073 10.086 6.06943L8.91744 7.96005L6.75826 8.48711C6.43995 8.5648 6.18462 8.80173 6.08339 9.11334C5.98216 9.42495 6.04945 9.76672 6.26128 10.0167L7.69824 11.7123L7.53238 13.9287C7.50789 14.2554 7.65433 14.5714 7.91936 14.7641C8.18439 14.9566 8.53038 14.9982 8.83339 14.874L10.89 14.0313L12.9467 14.874C13.0622 14.9213 13.1839 14.9445 13.305 14.9445C13.5016 14.9445 13.6967 14.8832 13.8607 14.764C14.1258 14.5714 14.2722 14.2553 14.2477 13.9286L14.0819 11.7122L15.5188 10.0166C15.7307 9.76663 15.7979 9.42486 15.6967 9.11325C15.5956 8.80173 15.3402 8.56488 15.022 8.48711ZM12.3892 10.7853C12.2287 10.9747 12.1492 11.2196 12.1677 11.4672L12.2483 12.5446L11.2484 12.135C11.1336 12.0879 11.0118 12.0644 10.89 12.0644C10.7683 12.0644 10.6465 12.0879 10.5317 12.135L9.53181 12.5446L9.61241 11.4672C9.63098 11.2196 9.5514 10.9748 9.39087 10.7853L8.69237 9.96111L9.74201 9.70493C9.98315 9.64598 10.1915 9.49473 10.322 9.28358L10.89 8.36448L11.4581 9.28358C11.5886 9.49473 11.7969 9.64606 12.0381 9.70493L13.0877 9.96111L12.3892 10.7853Z" fill="#0C6E6D"/>
<path d="M37.9156 9.11334C37.8144 8.80173 37.5591 8.5648 37.2408 8.48711L35.0816 7.96005L33.913 6.06943C33.7408 5.79073 33.4365 5.62109 33.1089 5.62109C32.7813 5.62109 32.477 5.79073 32.3048 6.06943L31.1362 7.96005L28.977 8.48711C28.6587 8.5648 28.4034 8.80173 28.3021 9.11334C28.2009 9.42495 28.2682 9.76672 28.48 10.0167L29.917 11.7123L29.7511 13.9287C29.7266 14.2554 29.8731 14.5714 30.1381 14.7641C30.4031 14.9566 30.749 14.9982 31.0521 14.874L33.1088 14.0313L35.1655 14.874C35.281 14.9213 35.4026 14.9445 35.5237 14.9445C35.7204 14.9445 35.9154 14.8832 36.0795 14.764C36.3445 14.5714 36.491 14.2553 36.4665 13.9286L36.3006 11.7122L37.7376 10.0166C37.9496 9.76672 38.0169 9.42495 37.9156 9.11334ZM34.608 10.7853C34.4474 10.9747 34.368 11.2196 34.3864 11.4672L34.467 12.5446L33.4672 12.135C33.3523 12.0879 33.2306 12.0644 33.1088 12.0644C32.987 12.0644 32.8652 12.0879 32.7504 12.135L31.7506 12.5446L31.8312 11.4672C31.8497 11.2196 31.7701 10.9748 31.6096 10.7853L30.9111 9.96111L31.9608 9.70493C32.2019 9.64598 32.4102 9.49473 32.5408 9.28358L33.1088 8.36448L33.6768 9.28358C33.8074 9.49473 34.0156 9.64606 34.2568 9.70493L35.3065 9.96111L34.608 10.7853Z" fill="#0C6E6D"/>
</svg>
