<svg width="44" height="44" viewBox="0 0 44 44" fill="none" xmlns="http://www.w3.org/2000/svg">
<path d="M37.5547 23.0445H33.2477C32.6615 23.0445 32.094 23.1246 31.5538 23.2719C30.4884 21.1774 28.3131 19.7383 25.8066 19.7383H18.1934C15.6869 19.7383 13.5116 21.1774 12.4462 23.2719C11.906 23.1246 11.3385 23.0445 10.7523 23.0445H6.44531C2.89137 23.0445 0 25.9358 0 29.4898V36.3749C0 38.5073 1.73482 40.2421 3.86719 40.2421H40.1328C42.2652 40.2421 44 38.5073 44 36.3749V29.4898C44 25.9358 41.1086 23.0445 37.5547 23.0445ZM11.7481 26.1838V37.6641H3.86719C3.1564 37.6641 2.57812 37.0858 2.57812 36.375V29.4899C2.57812 27.3575 4.31295 25.6227 6.44531 25.6227H10.7523C11.1023 25.6227 11.4411 25.6702 11.7637 25.7578C11.7544 25.8988 11.7481 26.0406 11.7481 26.1838ZM29.6738 37.6641H14.3262V26.1837C14.3262 24.0513 16.061 22.3165 18.1934 22.3165H25.8066C27.939 22.3165 29.6738 24.0513 29.6738 26.1837V37.6641ZM41.4219 36.375C41.4219 37.0858 40.8436 37.6641 40.1328 37.6641H32.2519V26.1837C32.2519 26.0404 32.2456 25.8986 32.2363 25.7577C32.5589 25.6702 32.8977 25.6226 33.2477 25.6226H37.5547C39.6871 25.6226 41.4219 27.3574 41.4219 29.4898V36.375Z" fill="#0C6E6D"/>
<path d="M8.59848 10.8711C5.44037 10.8711 2.87109 13.4404 2.87109 16.5985C2.87101 19.7566 5.44037 22.3259 8.59848 22.3259C11.7565 22.3259 14.3259 19.7566 14.3259 16.5985C14.3259 13.4404 11.7566 10.8711 8.59848 10.8711ZM8.5984 19.7478C6.86186 19.7478 5.44913 18.335 5.44913 16.5985C5.44913 14.8619 6.86186 13.4492 8.5984 13.4492C10.3349 13.4492 11.7477 14.8619 11.7477 16.5985C11.7477 18.335 10.3349 19.7478 8.5984 19.7478Z" fill="#0C6E6D"/>
<path d="M22.0003 3.75781C17.7811 3.75781 14.3486 7.19033 14.3486 11.4095C14.3486 15.6287 17.7811 19.0612 22.0003 19.0612C26.2195 19.0612 29.652 15.6287 29.652 11.4095C29.652 7.19041 26.2195 3.75781 22.0003 3.75781ZM22.0003 16.4831C19.2027 16.4831 16.9268 14.2071 16.9268 11.4095C16.9268 8.61199 19.2027 6.33594 22.0003 6.33594C24.7979 6.33594 27.0739 8.61191 27.0739 11.4095C27.0739 14.2071 24.7979 16.4831 22.0003 16.4831Z" fill="#0C6E6D"/>
<path d="M35.4012 10.8711C32.2432 10.8711 29.6738 13.4404 29.6738 16.5985C29.6739 19.7566 32.2432 22.3259 35.4012 22.3259C38.5593 22.3259 41.1286 19.7566 41.1286 16.5985C41.1286 13.4404 38.5593 10.8711 35.4012 10.8711ZM35.4012 19.7478C33.6648 19.7478 32.252 18.335 32.252 16.5985C32.252 14.8619 33.6648 13.4492 35.4012 13.4492C37.1378 13.4492 38.5505 14.8619 38.5505 16.5985C38.5505 18.335 37.1378 19.7478 35.4012 19.7478Z" fill="#0C6E6D"/>
</svg>
