<svg width="60" height="60" viewBox="0 0 60 60" fill="none" xmlns="http://www.w3.org/2000/svg">
<circle cx="30" cy="30" r="30" fill="#0C6E6D"/>
<path d="M48.0738 31.9259C47.6734 35.684 46.1114 39.2239 43.6053 42.0528C41.0992 44.8818 37.7735 46.8593 34.0911 47.71C30.4087 48.5607 26.5527 48.2424 23.0596 46.7993C19.5666 45.3563 16.6102 42.8602 14.6019 39.6586C12.5936 36.4569 11.6333 32.7089 11.8545 28.936C12.0758 25.163 13.4676 21.5529 15.8363 18.6079C18.2051 15.6629 21.4329 13.5296 25.0707 12.5047C28.7084 11.4798 32.5752 11.6143 36.133 12.8896L33.3866 20.5514C31.422 19.8472 29.2867 19.7729 27.2778 20.3388C25.269 20.9048 23.4865 22.0829 22.1785 23.7091C20.8704 25.3354 20.1019 27.329 19.9797 29.4124C19.8575 31.4959 20.3878 33.5656 21.4968 35.3336C22.6058 37.1016 24.2384 38.48 26.1673 39.2768C28.0962 40.0737 30.2256 40.2495 32.2591 39.7797C34.2925 39.3099 36.129 38.218 37.5129 36.6558C38.8969 35.0936 39.7594 33.1388 39.9805 31.0635L48.0738 31.9259Z" fill="#F9D67B"/>
<circle cx="30.0009" cy="29.9992" r="8.05184" transform="rotate(-3.99102 30.0009 29.9992)" fill="#F9D67B"/>
</svg>
