<svg width="32" height="32" viewBox="0 0 32 32" fill="none" xmlns="http://www.w3.org/2000/svg">
<g clip-path="url(#clip0_4779_7)">
<path d="M2.59109 8.23942C2.60752 7.37546 2.6232 6.55929 2.6232 5.76971C2.6232 5.15113 3.12455 4.64963 3.74329 4.64963C8.5335 4.64963 12.1806 3.27297 15.2207 0.317151C15.6556 -0.105792 16.3476 -0.105642 16.7824 0.317151C19.8221 3.27297 23.4687 4.64963 28.2586 4.64963C28.8772 4.64963 29.3787 5.15113 29.3787 5.76971C29.3787 6.55944 29.3942 7.37591 29.4108 8.24002C29.5643 16.2801 29.7746 27.2914 16.3684 31.9383C16.2495 31.9795 16.1256 32.0001 16.0016 32.0001C15.8777 32.0001 15.7536 31.9795 15.6348 31.9383C2.22759 27.2913 2.43757 16.2797 2.59109 8.23942ZM16.0015 29.6914C27.499 25.5147 27.3252 16.3651 27.1709 8.28273C27.1617 7.79766 27.1527 7.32752 27.1464 6.86664C22.6601 6.67728 19.0726 5.31779 16.0015 2.64244C12.93 5.31779 9.3419 6.67743 4.8553 6.86664C4.84903 7.32737 4.84007 7.79721 4.83081 8.28198C4.67669 16.3646 4.503 25.5145 16.0015 29.6914Z" fill="white"/>
<path d="M12.1445 12.1092L17.5506 17.5151L19.8575 15.2081C20.2949 14.7709 21.0042 14.7709 21.4415 15.2081C21.8789 15.6457 21.8789 16.3548 21.4415 16.7922L18.3426 19.8911C18.1239 20.1098 17.8372 20.2191 17.5506 20.2191C17.264 20.2191 16.9773 20.1098 16.7586 19.8911L10.5607 13.6933C10.1231 13.2559 10.1231 12.5467 10.5605 12.1094C10.9978 11.672 11.7071 11.6718 12.1445 12.1092Z" fill="white"/>
</g>
<defs>
<clipPath id="clip0_4779_7">
<rect width="32" height="32" fill="white" transform="matrix(-1 0 0 1 32 0)"/>
</clipPath>
</defs>
</svg>
