<svg width="28" height="28" viewBox="0 0 28 28" fill="none" xmlns="http://www.w3.org/2000/svg">
<path d="M21.4375 25.0469H6.5625C2.94394 25.0469 0 22.1029 0 18.4844V9.51562C0 5.89706 2.94394 2.95312 6.5625 2.95312H21.4375C25.0561 2.95312 28 5.89706 28 9.51562V18.4844C28 22.1029 25.0561 25.0469 21.4375 25.0469ZM6.5625 5.14062C4.15013 5.14062 2.1875 7.10325 2.1875 9.51562V18.4844C2.1875 20.8967 4.15013 22.8594 6.5625 22.8594H21.4375C23.8499 22.8594 25.8125 20.8967 25.8125 18.4844V9.51562C25.8125 7.10325 23.8499 5.14062 21.4375 5.14062H6.5625ZM18.0078 15.9363L23.414 11.8067C23.894 11.44 23.9859 10.7536 23.6192 10.2736C23.2525 9.79355 22.5661 9.70167 22.0861 10.0684L16.6806 14.1974C15.1198 15.3879 12.94 15.3888 11.3781 14.2004L6.14009 10.1287C5.66316 9.75789 4.97596 9.84402 4.60529 10.321C4.23456 10.7979 4.32064 11.485 4.79757 11.8558L10.0396 15.9306C10.0423 15.9327 10.0449 15.9347 10.0476 15.9368C11.2192 16.8304 12.6231 17.2771 14.0272 17.2771C15.4314 17.2771 16.8358 16.8301 18.0078 15.9363Z" fill="white"/>
</svg>
