<svg width="60" height="60" viewBox="0 0 60 60" fill="none" xmlns="http://www.w3.org/2000/svg">
<circle cx="30" cy="30" r="30" fill="white"/>
<g clip-path="url(#clip0_6343_2)">
<path fill-rule="evenodd" clip-rule="evenodd" d="M30 0C46.5686 0 60 13.4314 60 30C60 46.5686 46.5686 60 30 60C13.4314 60 0 46.5686 0 30C0 13.4314 13.4314 0 30 0ZM35.5045 42.743C35.2313 42.587 34.9074 42.5456 34.6037 42.6278C34.3 42.71 34.0412 42.9091 33.8839 43.1816C33.7266 43.4541 33.6836 43.7778 33.7643 44.0819C33.845 44.386 34.0428 44.6458 34.3145 44.8044L35.5491 45.5171C35.6845 45.5969 35.8344 45.6491 35.9901 45.6706C36.1457 45.6921 36.3042 45.6826 36.4561 45.6426C36.6081 45.6026 36.7507 45.5328 36.8756 45.4374C37.0005 45.342 37.1053 45.2229 37.1839 45.0867C37.2625 44.9506 37.3133 44.8003 37.3335 44.6445C37.3537 44.4886 37.3428 44.3303 37.3015 44.1786C37.2602 44.027 37.1893 43.885 37.0928 43.761C36.9963 43.6369 36.8762 43.5331 36.7395 43.4557L35.5045 42.743ZM24.4955 42.743L23.2605 43.4557C23.1244 43.5334 23.0049 43.6373 22.909 43.7613C22.8131 43.8853 22.7426 44.0271 22.7017 44.1784C22.6607 44.3298 22.65 44.4877 22.6703 44.6432C22.6906 44.7987 22.7414 44.9486 22.8197 45.0844C22.8981 45.2202 23.0026 45.3391 23.1271 45.4344C23.2516 45.5297 23.3937 45.5995 23.5452 45.6397C23.6968 45.6799 23.8548 45.6898 24.0101 45.6688C24.1655 45.6477 24.3152 45.5962 24.4506 45.5171L25.6855 44.8044C25.8217 44.7267 25.9412 44.6228 26.0371 44.4988C26.133 44.3748 26.2034 44.233 26.2444 44.0817C26.2854 43.9303 26.296 43.7724 26.2757 43.6169C26.2555 43.4615 26.2047 43.3115 26.1263 43.1757C26.0479 43.0399 25.9435 42.921 25.819 42.8257C25.6945 42.7304 25.5524 42.6606 25.4008 42.6204C25.2493 42.5802 25.0913 42.5703 24.9359 42.5914C24.7805 42.6124 24.6309 42.6639 24.4955 42.743ZM28.8096 46.4269V47.8527C28.808 48.01 28.8377 48.166 28.8968 48.3118C28.9559 48.4576 29.0433 48.5902 29.154 48.702C29.2647 48.8138 29.3964 48.9025 29.5416 48.963C29.6868 49.0236 29.8425 49.0548 29.9998 49.0548C30.1571 49.0548 30.3129 49.0236 30.458 48.963C30.6032 48.9025 30.735 48.8138 30.8456 48.702C30.9563 48.5902 31.0437 48.4576 31.1029 48.3118C31.162 48.166 31.1916 48.01 31.19 47.8527V46.4269C31.1869 46.1133 31.0602 45.8135 30.8373 45.5929C30.6144 45.3722 30.3135 45.2484 29.9998 45.2484C29.6862 45.2484 29.3852 45.3722 29.1624 45.5929C28.9395 45.8135 28.8127 46.1133 28.8096 46.4269ZM22.3151 25.4455V33.7266H37.6849V25.4461C37.6849 24.4369 37.4861 23.4376 37.0999 22.5052C36.7137 21.5728 36.1477 20.7256 35.4341 20.012C34.7204 19.2984 33.8733 18.7324 32.9409 18.3462C32.0085 17.9599 31.0092 17.7612 30 17.7612C28.9908 17.7612 27.9915 17.9599 27.0591 18.3462C26.1267 18.7324 25.2796 19.2984 24.5659 20.012C23.8523 20.7256 23.2863 21.5728 22.9001 22.5052C22.5139 23.4376 22.3151 24.4363 22.3151 25.4455ZM29.3483 13.9897C29.3484 14.1187 29.3867 14.2447 29.4584 14.3519C29.5301 14.4591 29.632 14.5426 29.7512 14.5919C29.8703 14.6412 30.0014 14.654 30.1279 14.6288C30.2544 14.6036 30.3705 14.5414 30.4617 14.4502C30.5528 14.3589 30.6148 14.2427 30.6399 14.1162C30.665 13.9897 30.652 13.8586 30.6026 13.7395C30.5532 13.6204 30.4696 13.5186 30.3623 13.447C30.255 13.3754 30.129 13.3373 30 13.3373C29.8271 13.3375 29.6613 13.4063 29.5391 13.5286C29.4169 13.651 29.3483 13.8168 29.3483 13.9897ZM40.6489 36.1064H19.3507C19.1192 36.1064 18.8971 36.1984 18.7334 36.3621C18.5696 36.5258 18.4777 36.7479 18.4777 36.9795C18.4777 37.211 18.5696 37.4331 18.7334 37.5968C18.8971 37.7605 19.1192 37.8525 19.3507 37.8525H40.6489C40.8805 37.8525 41.1026 37.7605 41.2663 37.5968C41.43 37.4331 41.522 37.211 41.522 36.9795C41.522 36.7479 41.43 36.5258 41.2663 36.3621C41.1026 36.1984 40.8805 36.1064 40.6489 36.1064ZM32.1253 40.2327H27.8754C27.9625 40.733 28.2234 41.1866 28.6122 41.5135C29.0009 41.8403 29.4925 42.0195 30.0004 42.0195C30.5082 42.0195 30.9998 41.8403 31.3885 41.5135C31.7773 41.1866 32.0382 40.733 32.1253 40.2327ZM27.4946 15.6956C25.3329 16.2544 23.4177 17.5149 22.0495 19.2795C20.6813 21.044 19.9374 23.2128 19.9346 25.4456V33.7266H19.3507C18.4879 33.7266 17.6604 34.0693 17.0502 34.6795C16.4401 35.2896 16.0973 36.1171 16.0973 36.9799C16.0973 37.8428 16.4401 38.6703 17.0502 39.2804C17.6604 39.8905 18.4879 40.2333 19.3507 40.2333H25.4788C25.5714 41.3688 26.0878 42.4279 26.9255 43.2C27.7632 43.9722 28.8607 44.4009 30 44.4009C31.1393 44.4009 32.2368 43.9722 33.0745 43.2C33.9122 42.4279 34.4286 41.3688 34.5212 40.2333H40.6489C41.5118 40.2333 42.3393 39.8905 42.9494 39.2804C43.5595 38.6703 43.9023 37.8428 43.9023 36.9799C43.9023 36.1171 43.5595 35.2896 42.9494 34.6795C42.3393 34.0693 41.5118 33.7266 40.6489 33.7266H40.0653V25.4461C40.0625 23.2133 39.3187 21.0445 37.9505 19.2799C36.5823 17.5154 34.6671 16.2549 32.5054 15.6961C32.816 15.2404 32.9965 14.7087 33.0273 14.1581C33.0582 13.6075 32.9384 13.0589 32.6807 12.5713C32.423 12.0838 32.0372 11.6757 31.5648 11.3911C31.0925 11.1065 30.5515 10.9561 30 10.9561C29.4485 10.9561 28.9075 11.1065 28.4352 11.3911C27.9628 11.6757 27.577 12.0838 27.3193 12.5713C27.0616 13.0589 26.9418 13.6075 26.9727 14.1581C27.0035 14.7087 27.184 15.24 27.4946 15.6956ZM28.8096 20.4534C28.8097 20.7691 28.9351 21.0718 29.1584 21.295C29.3816 21.5182 29.6843 21.6435 30 21.6435C31.0081 21.6446 31.9745 22.0455 32.6873 22.7583C33.4002 23.471 33.8012 24.4375 33.8024 25.4455C33.8055 25.7591 33.9323 26.0588 34.1551 26.2795C34.378 26.5002 34.679 26.624 34.9926 26.624C35.3062 26.624 35.6072 26.5002 35.8301 26.2795C36.0529 26.0588 36.1797 25.7591 36.1828 25.4455C36.1809 23.8063 35.5289 22.2348 34.3698 21.0758C33.2107 19.9167 31.6392 19.2648 30 19.2629C29.8437 19.2629 29.6889 19.2937 29.5444 19.3535C29.4 19.4133 29.2687 19.501 29.1582 19.6115C29.0477 19.7221 28.96 19.8533 28.9002 19.9977C28.8403 20.1422 28.8096 20.2971 28.8096 20.4534Z" fill="#0C6E6D"/>
</g>
<defs>
<clipPath id="clip0_6343_2">
<rect width="60" height="60" fill="white"/>
</clipPath>
</defs>
</svg>
