<svg width="42" height="42" viewBox="0 0 42 42" fill="none" xmlns="http://www.w3.org/2000/svg">
<g clip-path="url(#clip0_4306_604)">
<path d="M40.0635 40.3604H38.2643V14.2364C38.2643 13.0205 37.275 12.0312 36.0591 12.0312H32.0376C30.8217 12.0312 29.8325 13.0205 29.8325 14.2364V40.3604H25.264V26.0726C25.264 24.8567 24.2748 23.8675 23.0588 23.8675H19.0373C17.8214 23.8675 16.8322 24.8568 16.8322 26.0726V40.3604H12.2637V32.9609C12.2637 31.7449 11.2744 30.7557 10.0585 30.7557H6.03694C4.821 30.7557 3.83178 31.745 3.83178 32.9609V40.3604H1.93555C1.48249 40.3604 1.11523 40.7277 1.11523 41.1807C1.11523 41.6338 1.48249 42.001 1.93555 42.001H40.0635C40.5166 42.001 40.8838 41.6338 40.8838 41.1807C40.8838 40.7277 40.5166 40.3604 40.0635 40.3604ZM10.6229 40.3604H5.47232V32.9609C5.47232 32.6496 5.72555 32.3963 6.03686 32.3963H10.0584C10.3697 32.3963 10.6229 32.6496 10.6229 32.9609V40.3604ZM23.6233 40.3604H18.4727V26.0726C18.4727 25.7613 18.7259 25.5081 19.0373 25.5081H23.0588C23.37 25.5081 23.6233 25.7613 23.6233 26.0726V40.3604ZM36.6237 40.3604H31.4731V14.2364C31.4731 13.9251 31.7263 13.6719 32.0376 13.6719H36.0591C36.3705 13.6719 36.6237 13.9251 36.6237 14.2364V40.3604Z" fill="white"/>
<path d="M38.2637 0.862641C38.2752 0.638777 38.1965 0.411141 38.0255 0.240188C37.8545 0.0692344 37.6269 -0.00959766 37.403 0.00196875C37.3898 0.00139453 37.3768 0 37.3633 0H32.4004C31.9474 0 31.5801 0.367254 31.5801 0.820313C31.5801 1.27337 31.9474 1.64063 32.4004 1.64063H35.4649L27.3555 9.75007L24.2974 6.69195C24.1436 6.53814 23.9349 6.45168 23.7174 6.45168C23.4998 6.45168 23.2911 6.53814 23.1373 6.69195L8.39064 21.4387C8.07031 21.759 8.07031 22.2785 8.39064 22.5989C8.55085 22.7589 8.76076 22.839 8.97068 22.839C9.1806 22.839 9.3906 22.7589 9.55073 22.5987L23.7174 8.43199L26.7755 11.4901C27.0958 11.8105 27.6152 11.8105 27.9357 11.4901L36.6251 2.80079V5.57427C36.6251 6.02733 36.9923 6.39458 37.4454 6.39458C37.8984 6.39458 38.2657 6.02733 38.2657 5.57427V0.902344C38.2657 0.888973 38.2643 0.87593 38.2637 0.862641Z" fill="white"/>
<path d="M6.20508 25.7031C6.65812 25.7031 7.02539 25.3359 7.02539 24.8828C7.02539 24.4298 6.65812 24.0625 6.20508 24.0625C5.75203 24.0625 5.38477 24.4298 5.38477 24.8828C5.38477 25.3359 5.75203 25.7031 6.20508 25.7031Z" fill="white"/>
</g>
<defs>
<clipPath id="clip0_4306_604">
<rect width="42" height="42" fill="white"/>
</clipPath>
</defs>
</svg>
