<svg width="46" height="46" viewBox="0 0 46 46" fill="none" xmlns="http://www.w3.org/2000/svg">
<g clip-path="url(#clip0_4529_751)">
<mask id="mask0_4529_751" style="mask-type:luminance" maskUnits="userSpaceOnUse" x="0" y="0" width="46" height="46">
<path d="M46 0H0V46H46V0Z" fill="white"/>
</mask>
<g mask="url(#mask0_4529_751)">
<path fill-rule="evenodd" clip-rule="evenodd" d="M42.1908 4.22031C43.8528 5.99798 45.1471 8.08473 46 10.3613L28.6125 16.8368L36.3147 0C38.5324 1.0083 40.5292 2.44236 42.1908 4.22031ZM39.9926 36.3241C42.3918 32.7441 43.6727 28.5346 43.6727 24.2288H21.8364V2.4575C17.5176 2.4575 13.2956 3.73449 9.70485 6.12661C6.11381 8.51874 3.31496 11.9192 1.6623 15.8974C0.00939016 19.8754 -0.422965 24.2529 0.41962 28.4761C1.26221 32.6994 3.34188 36.5785 6.39582 39.6232C9.44978 42.6681 13.3405 44.7417 17.5762 45.5816C21.8121 46.4217 26.2028 45.9904 30.1926 44.3427C34.1827 42.695 37.5933 39.9045 39.9926 36.3241Z" fill="#0C6E6D"/>
</g>
</g>
<defs>
<clipPath id="clip0_4529_751">
<rect width="46" height="46" fill="white"/>
</clipPath>
</defs>
</svg>
