<svg width="44" height="42" viewBox="0 0 44 42" fill="none" xmlns="http://www.w3.org/2000/svg">
<path d="M25.0554 39.6434V32.3018C25.0554 31.3057 25.8628 30.4989 26.8583 30.4989C30.4107 30.4989 32.3432 26.8556 32.6115 19.6638H26.8583C25.8629 19.6638 25.0554 18.8559 25.0554 17.8608V2.35879C25.0554 1.36302 25.8628 0.5562 26.8583 0.5562H42.1969C43.1922 0.5562 44 1.3639 44 2.35879V17.861C44 21.3082 43.652 24.4716 42.9688 27.2654C42.267 30.1294 41.1897 32.6333 39.7675 34.7083C38.3048 36.8406 36.4736 38.5139 34.328 39.6792C32.166 40.8519 29.6529 41.4471 26.8576 41.4471C25.8629 41.4464 25.0554 40.6388 25.0554 39.6434ZM1.80259 30.4982C0.807201 30.4982 0 31.3057 0 32.3005V39.6435C0 40.6388 0.807201 41.4458 1.80259 41.4458C4.59653 41.4458 7.1109 40.8504 9.27146 39.6778C11.4183 38.5127 13.2492 36.8408 14.7118 34.7069C16.1348 32.632 17.212 30.1279 17.9138 27.2625C18.5974 24.4687 18.9446 21.3052 18.9446 17.8595V2.35728C18.9446 1.36151 18.1367 0.554688 17.1417 0.554688H1.80259C0.807201 0.554688 0 1.36227 0 2.35728V17.8595C0 18.8551 0.807201 19.6624 1.80259 19.6624H7.47493C7.20998 26.8549 5.30529 30.4982 1.80259 30.4982Z" fill="#0C6E6D" fill-opacity="0.1"/>
</svg>
