<svg width="50" height="50" viewBox="0 0 50 50" fill="none" xmlns="http://www.w3.org/2000/svg">
<mask id="mask0_4529_345" style="mask-type:luminance" maskUnits="userSpaceOnUse" x="0" y="0" width="50" height="50">
<path d="M50 0H0V50H50V0Z" fill="white"/>
</mask>
<g mask="url(#mask0_4529_345)">
<path d="M24.9993 0C13.5358 0 4.26758 9.26833 4.26758 20.7317C4.26758 32.1951 13.5358 41.4634 24.9993 41.4634H26.2188V50C38.17 44.3902 45.731 31.7073 45.731 20.7317C45.731 9.26833 36.4627 0 24.9993 0ZM23.7798 21.9512L21.3408 26.8292H17.6823L20.1213 21.9512H16.4627V14.6342H23.7798V21.9512ZM33.5358 21.9512L31.0968 26.8292H27.4383L29.8773 21.9512H26.2188V14.6342H33.5358V21.9512Z" fill="#0C6E6D" fill-opacity="0.15"/>
</g>
</svg>
