<svg width="149" height="167" viewBox="0 0 149 167" fill="none" xmlns="http://www.w3.org/2000/svg">
<path d="M189.952 109.387C187.954 128.136 180.161 145.796 167.658 159.91C155.155 174.023 138.564 183.889 120.193 188.133C101.821 192.377 82.5839 190.789 65.1572 183.59C47.7306 176.39 32.9814 163.938 22.9621 147.965C12.9429 131.992 8.15179 113.293 9.25557 94.4704C10.3593 75.6475 17.3031 57.6368 29.1206 42.9445C40.9381 28.2521 57.0416 17.6089 75.1902 12.4957C93.3389 7.38256 112.63 8.05382 130.379 14.4161L116.678 52.6403C106.877 49.1269 96.2236 48.7562 86.2017 51.5798C76.1797 54.4034 67.2871 60.2807 60.7613 68.3941C54.2355 76.5074 50.4011 86.4532 49.7916 96.8474C49.182 107.242 51.8278 117.567 57.3605 126.388C62.8933 135.208 71.038 142.085 80.6613 146.06C90.2846 150.036 100.908 150.913 111.053 148.569C121.198 146.226 130.36 140.778 137.264 132.984C144.168 125.19 148.471 115.438 149.575 105.085L189.952 109.387Z" fill="#F9D67B"/>
<circle cx="99.7788" cy="99.7769" r="40.1702" transform="rotate(-3.99102 99.7788 99.7769)" fill="#F9D67B"/>
</svg>
